<svg version="1.1" id="Layer_1" xmlns="http://www.w3.org/2000/svg" xmlns:xlink="http://www.w3.org/1999/xlink" x="0px" y="0px"
	 width="100%" viewBox="0 0 1024 1024" enable-background="new 0 0 1024 1024" xml:space="preserve">
<path fill="#000000" opacity="1.000000" stroke="none" 
	d="
M396.648865,375.252014 
	C408.187775,377.969452 408.302094,377.971008 408.144348,389.500366 
	C407.758820,417.677979 404.883820,445.595093 399.295624,473.235626 
	C398.509705,477.122955 396.683044,478.399353 392.846954,478.321777 
	C383.354401,478.129761 373.855042,478.276276 364.358398,478.283325 
	C357.108276,478.288727 356.923828,478.478516 356.932007,485.956573 
	C356.939301,492.620697 356.852844,499.286530 356.981750,505.948242 
	C357.057983,509.887909 355.701660,511.583984 351.440643,511.460266 
	C341.618652,511.175079 331.779358,511.507935 321.955353,511.260406 
	C317.677307,511.152588 315.842896,512.596619 315.934418,516.949585 
	C316.046234,522.266846 315.643097,527.594421 315.736084,532.912781 
	C315.791809,536.097961 314.701263,537.420532 311.413208,537.372559 
	C302.251648,537.238708 293.086670,537.278198 283.923706,537.343018 
	C281.610565,537.359375 279.763489,536.616577 278.035065,535.124268 
	C266.062927,524.787720 256.492310,512.485596 248.132294,499.136536 
	C246.117798,495.919891 247.603378,494.037201 249.614166,491.777924 
	C260.417114,479.639557 268.236725,465.886841 272.089508,449.979401 
	C273.027130,446.108093 272.472351,441.994049 274.158752,438.166443 
	C276.287750,438.345093 277.092621,440.205536 278.222534,441.455688 
	C290.171234,454.675964 302.158600,467.865051 313.860931,481.301727 
	C317.015625,484.923920 318.898468,484.841370 321.986328,481.308929 
	C342.376160,457.983185 362.940338,434.809875 383.424133,411.566132 
	C387.400818,407.053680 387.304596,404.821075 382.637726,401.229279 
	C370.043732,391.536530 373.052216,389.328247 360.381866,402.610046 
	C347.391510,416.227234 334.524872,429.965424 321.795380,443.826294 
	C318.881134,446.999512 317.170776,447.559814 314.093811,443.898804 
	C308.635590,437.404541 302.522736,431.464844 296.806793,425.181183 
	C293.608246,421.664886 290.426605,421.460205 286.807800,424.429535 
	C282.706818,427.794373 278.531403,431.068481 274.274841,434.472809 
	C271.868958,432.320679 272.670197,429.357239 272.044647,426.927582 
	C266.873657,406.842346 252.145584,394.627869 231.562897,394.096588 
	C227.241287,393.985046 225.694885,392.549530 225.596527,388.285492 
	C225.354721,377.802795 225.190369,377.739685 235.347488,374.824677 
	C260.495941,367.607300 285.221222,359.166107 309.225616,348.752899 
	C314.110840,346.633698 318.240997,346.791504 322.991394,348.787231 
	C345.871185,358.399475 369.121216,367.025146 392.896942,374.186615 
	C394.012054,374.522522 395.139923,374.816040 396.648865,375.252014 
z"/>
<path fill="#000000" opacity="1.000000" stroke="none" 
	d="
M200.011749,452.799438 
	C197.898544,459.970856 195.903229,466.752350 193.503799,474.907196 
	C188.269943,465.801239 186.288803,456.793335 182.325104,448.944519 
	C181.434616,448.944519 180.953445,448.802917 180.806046,448.964966 
	C175.320404,454.995361 168.119659,454.327209 160.938278,454.396423 
	C144.946335,454.550537 128.958466,455.092194 112.966927,455.353607 
	C110.150673,455.399658 108.490524,456.309082 107.075058,458.891663 
	C103.815994,464.838013 98.384598,467.158813 92.439293,465.723236 
	C86.212273,464.219666 82.020874,459.493744 81.651276,453.559540 
	C81.227379,446.753540 84.385002,441.676788 90.450813,439.411926 
	C96.207542,437.262451 102.455276,439.145691 106.241837,444.640320 
	C107.866173,446.997345 109.629120,447.966370 112.408600,447.881348 
	C117.182045,447.735413 121.963181,447.841003 127.307617,447.841003 
	C125.777702,431.876556 127.613907,417.692261 141.443039,407.628113 
	C136.945435,401.871338 132.653946,396.400543 128.389755,390.908539 
	C126.853973,388.930573 124.896935,388.804779 122.577858,389.082001 
	C119.064056,389.502106 115.652039,389.211060 112.587700,384.586212 
	C118.980392,385.154480 122.161552,380.261627 127.102913,379.139557 
	C129.656311,378.559784 130.802490,377.071716 130.841766,374.599060 
	C130.881180,372.116882 130.526749,369.770294 127.382515,369.500397 
	C124.889565,369.286407 124.607620,367.450623 124.311394,365.628296 
	C124.113426,364.410461 124.350037,363.154572 125.690483,362.750061 
	C127.432976,362.224182 128.981155,363.010956 130.316956,364.057587 
	C135.437210,368.069550 136.394226,373.570587 134.882812,379.372437 
	C133.976028,382.853302 134.573059,385.533600 136.554199,388.225677 
	C139.812897,392.653717 143.076462,397.078705 146.283478,401.544098 
	C147.481918,403.212799 148.847961,403.927765 150.966812,403.392059 
	C167.830048,399.128662 180.744812,406.330597 192.183044,417.716797 
	C193.244019,418.773010 194.197952,419.936035 195.234589,421.017853 
	C195.448120,421.240692 195.808838,421.322479 196.394943,421.616211 
	C199.127365,420.473236 200.584778,417.705719 202.626846,415.632294 
	C211.621445,406.499512 222.441299,401.127838 235.280869,402.294159 
	C251.478012,403.765503 263.945740,417.703644 265.136017,434.241394 
	C265.521881,439.602173 264.904907,444.862000 263.660309,450.091492 
	C263.031006,452.735443 261.798157,454.185394 258.941620,454.190613 
	C246.612015,454.213226 234.284958,454.306152 221.972961,453.384644 
	C219.439682,453.195068 218.644714,451.502014 217.861664,449.641174 
	C215.406815,443.807587 213.032059,437.939636 210.511932,432.134674 
	C209.884415,430.689240 209.758530,428.832916 207.407211,427.794037 
	C204.072296,435.783661 202.322586,444.167938 200.011749,452.799438 
z"/>
<path fill="#000000" opacity="1.000000" stroke="none" 
	d="
M122.872284,571.122192 
	C136.365540,585.665222 153.567230,593.330750 171.468887,599.412659 
	C200.433899,609.253235 230.328308,614.617859 260.847198,616.832275 
	C283.502136,618.476135 306.154633,618.830627 328.726379,616.550903 
	C363.771149,613.011536 398.279877,606.914429 430.552948,591.782288 
	C440.852173,586.953186 450.589813,581.251038 459.477875,574.112488 
	C461.174835,572.749573 462.669800,570.808533 465.542419,571.161316 
	C461.791626,575.952820 457.775665,580.442139 452.968384,584.155823 
	C429.930420,601.952820 403.723969,613.199524 375.930695,621.025513 
	C337.052307,631.973022 297.390503,637.271912 257.005310,636.077393 
	C220.710083,635.003784 185.025345,630.001099 150.947952,616.658569 
	C137.037796,611.212219 124.021904,604.127014 113.423088,593.356140 
	C98.826790,578.523010 94.300308,561.096802 100.555153,541.062073 
	C102.550117,534.672180 105.175682,528.561707 108.565338,522.797424 
	C109.435089,521.318359 109.986465,519.381653 112.696838,518.871765 
	C108.301125,537.826233 108.164490,555.822693 122.872284,571.122192 
z"/>
<path fill="#000000" opacity="1.000000" stroke="none" 
	d="
M398.301270,521.000244 
	C398.297577,540.320312 398.268219,559.140381 398.318420,577.960327 
	C398.330688,582.559875 399.768036,583.824036 403.652222,582.040100 
	C420.059875,574.504517 435.970764,566.161255 447.717651,551.803284 
	C458.532837,538.584167 457.363403,527.128906 443.971588,516.543335 
	C438.451477,512.179993 432.237640,508.973267 425.649567,506.490997 
	C423.828552,505.804840 421.745453,505.586060 420.407104,503.852234 
	C420.785919,502.328766 422.009552,502.738190 422.808411,502.956268 
	C436.631836,506.729523 450.421753,510.607971 462.621948,518.534668 
	C463.320068,518.988281 464.039062,519.411621 464.719788,519.889648 
	C479.429321,530.220337 481.295990,542.633789 469.684143,556.258240 
	C458.368378,569.535339 443.120331,577.159790 427.558044,584.134216 
	C408.934387,592.480713 389.291992,597.508362 369.439056,601.898865 
	C364.722260,602.942017 363.654297,601.429749 363.667023,597.023865 
	C363.768677,561.882385 363.766907,526.740295 363.627167,491.599060 
	C363.610199,487.332581 364.902649,485.529175 369.296448,485.661530 
	C377.117767,485.897003 384.950104,485.886292 392.776001,485.803955 
	C396.823944,485.761383 398.397980,487.468964 398.331451,491.522583 
	C398.172852,501.179321 398.295715,510.840698 398.301270,521.000244 
z"/>
<path fill="#000000" opacity="1.000000" stroke="none" 
	d="
M120.017036,504.002991 
	C121.506927,497.856110 126.480804,494.385010 132.465271,495.315857 
	C137.187881,496.050415 146.114212,491.404449 148.072739,487.307404 
	C149.028168,485.308716 147.640213,484.134583 146.700012,482.877991 
	C143.010056,477.946442 139.017670,473.227448 136.023575,467.811920 
	C135.092712,466.128174 133.556671,464.597260 134.195374,461.666168 
	C139.513519,461.666168 144.953537,461.666412 150.393570,461.666077 
	C155.556458,461.665741 160.719818,461.621094 165.882095,461.677277 
	C170.369308,461.726135 174.885132,462.036316 179.048447,458.219147 
	C185.251312,469.859131 188.476303,482.117310 194.338898,494.598145 
	C199.980743,478.536011 202.883820,462.758301 208.534317,447.334930 
	C211.567581,450.066223 212.555634,453.485107 213.646591,456.592651 
	C215.060898,460.621185 217.456741,461.774994 221.506271,461.696106 
	C231.994156,461.491669 242.489456,461.637756 252.981430,461.702179 
	C254.760590,461.713104 256.652405,461.269012 258.317535,462.486298 
	C259.000854,464.545715 257.568848,465.993866 256.701965,467.491760 
	C242.906830,491.328613 222.736359,508.633636 199.739212,523.062500 
	C197.261139,524.617249 195.470230,523.781311 193.378082,522.460754 
	C181.381287,514.888855 169.783005,506.758850 159.739868,496.698456 
	C156.149384,493.101807 153.738739,493.390350 150.280594,496.692657 
	C146.560318,500.245361 143.498016,503.459290 144.132462,509.344025 
	C144.627365,513.934387 141.798141,517.648682 137.485672,519.585266 
	C135.118973,520.648010 132.941986,520.195312 133.605331,516.788452 
	C134.220352,513.629639 133.660629,510.207672 136.556717,507.550446 
	C138.612228,505.664520 137.491226,503.643433 135.221725,502.318665 
	C130.016739,499.280212 125.120720,499.447937 120.280334,503.806335 
	C119.989426,503.986084 120.017036,504.002991 120.017036,504.002991 
z"/>
<path fill="#000000" opacity="1.000000" stroke="none" 
	d="
M413.036316,500.823944 
	C410.567444,506.838196 409.160248,512.886902 405.784973,518.037170 
	C404.096161,517.615784 404.544678,516.492981 404.550659,515.561829 
	C404.622498,504.405182 404.170837,493.211487 404.950836,482.104401 
	C405.505005,474.213379 407.832428,466.458099 409.175629,458.609253 
	C413.849152,431.299896 415.471832,403.779358 414.845917,376.095978 
	C414.763245,372.440186 412.567627,371.813904 409.806610,371.192780 
	C387.354095,366.141663 365.616791,358.824738 344.272278,350.299957 
	C336.389374,347.151611 328.527039,343.940063 320.759399,340.520782 
	C317.601746,339.130798 314.799072,339.134247 311.681061,340.511688 
	C282.865295,353.241547 253.441650,364.246521 222.693680,371.408203 
	C219.841919,372.072388 218.931091,373.781830 218.998245,376.431793 
	C219.107864,380.760162 218.989410,385.104431 219.325287,389.414062 
	C219.641724,393.474335 218.503296,396.061707 214.227753,397.097443 
	C211.860535,397.670898 209.679306,399.012115 207.613190,399.919830 
	C206.106125,399.100800 205.959778,397.909790 205.915695,396.747894 
	C205.549622,387.099304 205.245819,377.448334 204.856781,367.800751 
	C204.730331,364.664551 205.657700,363.054718 209.202087,362.571503 
	C245.201294,357.663452 279.095093,346.276703 310.896515,328.753204 
	C314.413849,326.815094 317.169800,326.925598 320.615753,328.688110 
	C346.647858,342.002960 373.771149,352.452820 402.321960,358.964325 
	C409.122131,360.515198 416.039612,361.575623 422.930359,362.693817 
	C425.608124,363.128326 427.197327,364.132751 427.255798,367.087891 
	C428.146912,412.134308 427.176025,456.980103 413.036316,500.823944 
z"/>
<path fill="#000000" opacity="1.000000" stroke="none" 
	d="
M489.222046,491.694244 
	C486.123138,484.836395 483.177246,478.329437 479.940613,471.180267 
	C478.618652,473.311279 478.986786,475.084320 478.978546,476.717896 
	C478.922150,487.881134 478.705231,499.050415 478.997681,510.205750 
	C479.149872,516.011536 475.820435,516.009705 471.638428,516.121155 
	C467.173340,516.240112 465.505707,514.756531 465.557892,510.063263 
	C465.776611,490.403412 465.805145,470.737091 465.516388,451.078827 
	C465.440308,445.900269 467.189270,444.036072 472.109039,444.756500 
	C472.272156,444.780396 472.447723,444.787964 472.607635,444.755188 
	C479.335449,443.378448 482.827057,446.394684 485.182678,452.666565 
	C488.807617,462.317932 493.251465,471.664032 497.426025,481.105072 
	C498.471466,483.469391 499.174805,486.085358 501.682068,488.479004 
	C504.257996,482.564331 506.596283,477.110168 509.004395,471.686951 
	C512.180908,464.533325 515.691711,457.512115 518.511047,450.222137 
	C520.103394,446.104858 522.414673,444.695343 526.704163,444.763214 
	C536.567871,444.919373 536.547729,444.740479 536.516663,454.469177 
	C536.457642,472.963928 536.345032,491.459229 536.450806,509.953217 
	C536.473694,513.961365 535.767212,516.189270 531.037292,516.033264 
	C523.659180,515.789856 522.932129,515.559509 522.908264,509.914215 
	C522.854858,497.278137 522.891602,484.641663 521.864075,471.686249 
	C518.741760,478.731201 515.601440,485.768219 512.505859,492.824890 
	C511.235168,495.721558 509.841705,498.591370 508.893158,501.596191 
	C507.371887,506.415314 504.234833,507.954407 499.405853,507.432770 
	C497.140625,507.188080 495.687073,506.501190 494.796753,504.392426 
	C493.048553,500.251740 491.188690,496.158173 489.222046,491.694244 
z"/>
<path fill="#000000" opacity="1.000000" stroke="none" 
	d="
M322.695801,529.042969 
	C322.881287,518.725891 321.116516,518.837158 332.458160,518.905640 
	C338.954651,518.944824 345.454926,519.008850 351.947266,518.832275 
	C355.619934,518.732422 357.050659,520.290222 357.023468,523.851990 
	C356.828888,549.333069 357.370728,574.818542 356.471313,600.297180 
	C356.367035,603.251282 355.173889,604.510132 352.460144,604.875793 
	C344.381317,605.964539 336.300903,607.046143 328.234985,608.225342 
	C324.059723,608.835693 322.664551,607.146851 322.683044,602.999146 
	C322.792053,578.511536 322.711121,554.023071 322.695801,529.042969 
z"/>
<path fill="#000000" opacity="1.000000" stroke="none" 
	d="
M315.916748,592.906006 
	C315.768250,597.706848 315.486389,602.023682 315.517731,606.338257 
	C315.536591,608.934509 314.386719,610.022217 311.987854,610.052551 
	C302.678406,610.170471 293.368317,610.237915 284.059082,610.368408 
	C281.384613,610.405884 280.677765,608.910095 280.680573,606.571045 
	C280.703552,587.282959 280.715668,567.994751 280.676758,548.706787 
	C280.671509,546.102356 281.863190,545.194397 284.335938,545.236694 
	C293.465424,545.392761 302.597107,545.579163 311.726105,545.509338 
	C314.822662,545.485596 315.787567,546.621277 315.780853,549.585876 
	C315.748413,563.864075 315.856873,578.142700 315.916748,592.906006 
z"/>
<path fill="#000000" opacity="1.000000" stroke="none" 
	d="
M855.951782,441.682373 
	C865.372559,441.144928 865.374756,441.144928 865.373718,450.482086 
	C865.371521,469.958130 865.371094,489.434143 865.360657,508.910187 
	C865.356873,515.870789 861.612183,518.253479 855.318848,514.877563 
	C853.370056,513.832214 852.130798,513.998230 850.330139,514.679504 
	C833.094971,521.200928 821.269836,514.342834 818.127380,496.084930 
	C815.547607,481.096222 822.481812,468.554779 835.209290,465.326813 
	C839.296997,464.290100 843.476746,464.231140 847.555786,465.295288 
	C850.733459,466.124237 851.877747,464.972473 851.851440,461.896240 
	C851.807312,456.736511 851.862976,451.575897 851.884705,446.415680 
	C851.895203,443.930176 852.137268,441.608398 855.951782,441.682373 
M850.901733,477.926361 
	C844.975830,474.746765 839.963440,474.853821 836.064148,478.243286 
	C830.788940,482.828766 830.505432,498.489166 835.681458,503.297699 
	C838.997253,506.377991 842.922668,506.352997 846.906067,504.949738 
	C849.456360,504.051270 851.961975,502.900085 851.872070,499.515594 
	C851.686829,492.540710 852.372070,485.545258 850.901733,477.926361 
z"/>
<path fill="#000000" opacity="1.000000" stroke="none" 
	d="
M692.585083,476.558533 
	C692.348328,480.152679 692.346924,483.280792 692.958618,486.437408 
	C695.881775,501.524353 705.540588,507.417450 720.312683,502.948700 
	C723.011414,502.132294 725.640442,501.085358 728.366760,500.121857 
	C730.975464,502.117523 731.431824,505.265839 732.732239,507.878448 
	C734.138733,510.704010 731.706970,511.682190 729.788635,512.655945 
	C710.787231,522.301086 680.414124,518.338013 677.784729,484.564484 
	C677.145996,476.360077 677.871338,468.277374 681.428162,460.639893 
	C690.517334,441.123474 716.104858,439.972473 730.359680,448.638672 
	C734.793518,451.334259 730.786133,454.160309 730.047180,456.789978 
	C729.379456,459.165619 728.054443,460.970245 724.910889,459.421875 
	C721.008484,457.499756 716.872986,456.321350 712.419250,456.306519 
	C701.619446,456.270599 694.890381,461.971710 693.285034,472.690521 
	C693.112671,473.841553 692.873413,474.982574 692.585083,476.558533 
z"/>
<path fill="#000000" opacity="1.000000" stroke="none" 
	d="
M904.484680,469.340088 
	C911.120117,464.466400 918.402649,463.849152 925.760681,464.941803 
	C937.119934,466.628693 944.866333,476.353363 945.292297,488.699554 
	C945.775696,502.709045 939.019470,513.110474 927.562256,515.995972 
	C914.992310,519.161682 902.255493,513.603149 897.208801,502.749237 
	C891.963379,491.468048 894.829224,477.851471 904.484680,469.340088 
M909.373291,493.955872 
	C909.633911,495.082550 909.828369,496.229523 910.166138,497.332581 
	C911.956665,503.179688 915.154236,505.788116 920.378601,505.720947 
	C925.404602,505.656342 928.994812,502.560608 930.612122,497.139252 
	C932.260803,491.612640 931.604614,486.299011 929.331787,481.139221 
	C927.585999,477.175903 924.117615,475.465820 920.087158,475.582092 
	C916.114807,475.696747 912.764954,477.406372 910.929016,481.379944 
	C909.183533,485.157745 909.183594,489.098511 909.373291,493.955872 
z"/>
<path fill="#000000" opacity="1.000000" stroke="none" 
	d="
M589.927368,493.039886 
	C581.664185,495.307312 573.490845,493.677124 565.410889,494.342377 
	C563.055908,494.536224 559.307129,492.545868 558.665833,496.297180 
	C558.101746,499.597046 560.766235,502.059631 563.693726,503.690613 
	C569.307800,506.818329 575.097839,505.857330 580.591797,503.737701 
	C585.367126,501.895355 586.612549,504.355225 588.093506,508.016785 
	C589.730530,512.064392 587.719971,513.349976 584.479187,514.468750 
	C577.239990,516.967834 569.877991,517.734497 562.396301,516.042725 
	C549.441589,513.113403 541.686951,500.537842 544.034546,486.518188 
	C546.176086,473.729156 554.515442,465.346069 565.747437,464.691406 
	C583.041504,463.683441 592.951965,475.040527 589.927368,493.039886 
M576.319824,479.197998 
	C573.390442,475.052277 569.321289,474.560150 564.882751,475.883240 
	C561.075317,477.018250 558.881348,479.620758 558.560852,484.671417 
	C563.684265,484.671417 568.547302,484.570190 573.403931,484.703552 
	C577.278076,484.809906 578.113770,483.173187 576.319824,479.197998 
z"/>
<path fill="#000000" opacity="1.000000" stroke="none" 
	d="
M755.173218,475.600037 
	C752.008240,476.235901 749.165222,476.576202 746.495483,477.447388 
	C743.643555,478.378021 742.306580,477.509644 741.193909,474.836700 
	C738.691223,468.824188 738.683533,468.546265 744.920654,466.486176 
	C751.036621,464.466187 757.380981,464.000427 763.658997,465.023682 
	C773.151123,466.570770 778.514893,472.262299 778.993896,481.943481 
	C779.495239,492.074585 779.210754,502.251129 779.057068,512.404602 
	C778.999512,516.209106 773.775452,517.922913 769.794067,514.787109 
	C766.985291,512.574890 765.244690,513.365784 762.768127,514.545349 
	C759.277039,516.208191 755.519714,517.063232 751.626282,516.822998 
	C742.326233,516.249084 736.336670,511.142792 735.684387,503.353027 
	C734.909058,494.092957 739.460754,488.043732 749.003052,485.772064 
	C752.911316,484.841675 756.903320,484.714569 760.912048,484.687103 
	C762.575623,484.675720 764.961304,485.510559 765.424316,482.875122 
	C765.828430,480.574951 764.734192,478.604401 762.724487,477.381317 
	C760.553284,476.059845 758.110474,475.554352 755.173218,475.600037 
M752.630310,495.009979 
	C749.394958,496.932556 748.473694,499.833405 749.882568,503.129669 
	C751.272400,506.381439 754.373047,506.830566 757.507629,506.475891 
	C758.974670,506.309875 760.415527,505.771088 761.826843,505.281738 
	C765.886230,503.874207 765.980652,500.556519 765.657227,497.085022 
	C765.292480,493.170258 762.102905,493.808533 759.617310,493.458801 
	C757.414917,493.148895 755.337830,493.874878 752.630310,495.009979 
z"/>
<path fill="#000000" opacity="1.000000" stroke="none" 
	d="
M646.348389,484.843689 
	C648.962708,484.771118 651.127991,484.794952 653.285828,484.679352 
	C655.003967,484.587341 657.221985,485.256470 657.712097,482.640839 
	C658.161316,480.243042 657.175903,478.324707 655.017944,477.257904 
	C652.464417,475.995544 649.741028,475.257904 646.833008,475.738464 
	C644.705139,476.090088 642.557312,476.362030 640.459473,476.847046 
	C635.182983,478.066895 632.740356,476.243286 632.057373,470.712860 
	C631.805054,468.669647 632.977844,468.066437 634.445007,467.543060 
	C642.595703,464.635376 650.892822,463.414124 659.374329,465.871399 
	C666.780029,468.016968 671.234497,473.977783 671.321228,481.816650 
	C671.424316,491.131439 671.379456,500.447968 671.383301,509.763763 
	C671.385864,516.114136 668.030823,518.079834 662.347046,514.997986 
	C661.366272,514.466248 660.604187,513.531250 659.578552,512.641541 
	C654.079895,515.699890 648.301880,517.382935 641.937561,516.474365 
	C633.808716,515.313965 628.823364,510.509644 627.886902,502.704346 
	C627.054138,495.762909 630.906677,489.646301 638.187622,486.821320 
	C640.639099,485.870117 643.320068,485.510162 646.348389,484.843689 
M650.659546,493.929932 
	C649.666809,494.028778 648.661865,494.060364 647.683472,494.238312 
	C643.683167,494.965729 641.180969,497.440491 641.643738,501.442566 
	C642.131226,505.659485 645.449158,507.002899 649.405640,506.610291 
	C650.707581,506.481110 652.025940,506.107300 653.243164,505.614136 
	C656.485718,504.300385 658.992798,502.704651 658.407410,498.297394 
	C657.790527,493.652924 654.772888,493.873779 650.659546,493.929932 
z"/>
<path fill="#000000" opacity="1.000000" stroke="none" 
	d="
M237.722214,596.960022 
	C237.720779,589.968201 237.836578,583.465820 237.669403,576.970764 
	C237.584030,573.653687 238.661926,571.973938 242.167755,572.009338 
	C250.998993,572.098572 259.831390,572.084717 268.663330,572.084045 
	C271.740570,572.083862 273.166260,573.414490 273.140778,576.636841 
	C273.066956,585.968140 273.109497,595.301636 273.238586,604.632507 
	C273.285339,608.010376 271.991455,609.359497 268.520020,609.364746 
	C259.335052,609.378601 250.248947,608.343384 241.142639,607.385315 
	C238.536026,607.111084 237.721268,605.778320 237.742905,603.451477 
	C237.761490,601.452026 237.731079,599.452209 237.722214,596.960022 
z"/>
<path fill="#000000" opacity="1.000000" stroke="none" 
	d="
M594.808472,476.272797 
	C589.744263,474.784668 592.054199,471.013519 591.894714,468.227264 
	C591.748108,465.665131 594.067322,465.671509 595.902039,465.698608 
	C598.758667,465.740723 599.723145,464.227966 599.630310,461.621796 
	C599.583008,460.292053 599.644531,458.958496 599.654053,457.626648 
	C599.703918,450.655518 599.722839,450.973877 606.457825,450.567566 
	C611.630554,450.255524 613.094971,452.281281 613.050232,457.144104 
	C612.974548,465.381836 613.205994,465.593445 621.027893,465.581207 
	C625.097168,465.574829 626.166077,467.262054 626.126282,470.977783 
	C626.087158,474.632019 625.109253,476.426453 621.003113,476.400360 
	C613.187195,476.350708 613.171021,476.559601 613.044739,484.243073 
	C612.973633,488.570984 612.912537,492.900085 612.932922,497.228241 
	C612.966675,504.393951 614.643555,505.820770 621.549988,504.794464 
	C622.501892,504.653015 623.492920,504.774963 624.396606,504.774963 
	C624.676270,505.131012 624.987488,505.357330 625.059692,505.643890 
	C627.384583,514.874573 627.056580,515.351318 617.582581,516.625549 
	C606.038818,518.178223 599.671509,512.707214 599.616455,501.209106 
	C599.585327,494.717133 599.650024,488.220795 599.415710,481.735626 
	C599.323303,479.176971 599.266174,476.071716 594.808472,476.272797 
z"/>
<path fill="#000000" opacity="1.000000" stroke="none" 
	d="
M801.132385,498.002563 
	C801.122742,502.660370 800.983032,506.824921 801.139771,510.978302 
	C801.279114,514.670288 799.561707,515.919250 796.062256,516.045044 
	C787.906616,516.338379 787.637878,516.373657 787.501770,508.277710 
	C787.334045,498.302521 787.530212,488.321289 787.559631,478.342651 
	C787.564087,476.845703 787.434875,475.344452 787.511414,473.852570 
	C787.651855,471.113617 785.244690,467.214813 789.310120,466.083710 
	C792.960754,465.068024 797.403381,464.410400 799.773254,469.547882 
	C804.162109,466.756287 808.328369,463.921112 813.680908,464.741730 
	C816.451416,465.166534 819.001953,466.244446 817.875122,469.427460 
	C816.879211,472.240845 819.858459,477.268982 813.327087,477.473480 
	C803.241333,477.789276 800.171997,480.965546 801.101440,490.020874 
	C801.354858,492.490387 801.134338,495.008575 801.132385,498.002563 
z"/>
<path fill="#000000" opacity="1.000000" stroke="none" 
	d="
M251.556381,517.461670 
	C257.015076,524.427551 262.367950,531.053223 268.679291,536.733093 
	C272.212860,539.913086 273.980103,543.277161 273.378693,548.018005 
	C272.965332,551.276367 273.786987,554.632446 272.924103,557.812805 
	C271.406006,558.474609 270.601990,557.465149 269.721436,556.767883 
	C254.829651,544.975830 242.676132,530.747253 232.289978,514.911377 
	C230.442001,512.093811 230.822754,510.207550 233.353455,508.132324 
	C242.153580,500.916046 239.869797,500.212708 246.196548,509.815887 
	C247.842651,512.314453 249.625534,514.722961 251.556381,517.461670 
z"/>
<path fill="#000000" opacity="1.000000" stroke="none" 
	d="
M874.711304,471.131348 
	C874.072632,463.987396 879.019836,465.850159 882.451782,465.712036 
	C885.115173,465.604797 888.408142,464.796448 888.387207,469.426178 
	C888.322571,483.730621 888.356262,498.035614 888.381897,512.340332 
	C888.386353,514.834412 887.176453,516.003784 884.752563,516.042297 
	C883.422485,516.063416 882.088318,516.004517 880.762756,516.088257 
	C876.433838,516.361816 874.518005,514.760498 874.617371,510.038849 
	C874.886780,497.236572 874.708679,484.424927 874.711304,471.131348 
z"/>
<path fill="#000000" opacity="1.000000" stroke="none" 
	d="
M886.222412,457.442017 
	C882.347595,459.171387 878.753540,459.658386 875.696777,456.835815 
	C873.578552,454.879944 872.400452,452.307495 873.223877,449.223724 
	C874.233459,445.442719 876.711426,443.258179 880.534851,442.809814 
	C884.128784,442.388306 887.294800,443.651031 888.817200,446.975891 
	C890.536987,450.731873 890.035889,454.414337 886.222412,457.442017 
z"/>
<path fill="#000000" opacity="1.000000" stroke="none" 
	d="
M119.977188,503.974243 
	C119.295074,508.180023 121.631485,511.906006 122.314217,516.232971 
	C117.852516,513.146423 117.272293,510.316162 119.806213,504.295715 
	C120.017036,504.002991 119.989426,503.986084 119.977188,503.974243 
z"/>
</svg>